<svg xmlns="http://www.w3.org/2000/svg" xmlns:xlink="http://www.w3.org/1999/xlink" width="500" zoomAndPan="magnify" viewBox="0 0 375 374.999991" height="500" preserveAspectRatio="xMidYMid meet" version="1.0"><defs><g/><clipPath id="738311e2f0"><path d="M 14.53125 98 L 77 98 L 77 177 L 14.53125 177 Z M 14.53125 98 " clip-rule="nonzero"/></clipPath><clipPath id="4e525ee156"><path d="M 14.53125 198 L 77 198 L 77 277 L 14.53125 277 Z M 14.53125 198 " clip-rule="nonzero"/></clipPath><clipPath id="3a2ce53a07"><path d="M 298 198 L 360.28125 198 L 360.28125 277 L 298 277 Z M 298 198 " clip-rule="nonzero"/></clipPath><clipPath id="c9f12e93e0"><path d="M 298 98 L 360.28125 98 L 360.28125 177 L 298 177 Z M 298 98 " clip-rule="nonzero"/></clipPath><clipPath id="408447f829"><path d="M 312 0 L 360.28125 0 L 360.28125 57 L 312 57 Z M 312 0 " clip-rule="nonzero"/></clipPath></defs><path fill="#1190cf" d="M 184.746094 166.820312 L 184.746094 95.601562 C 182.636719 95.285156 180.554688 94.566406 178.597656 93.441406 C 176.472656 92.210938 174.707031 90.613281 173.324219 88.769531 C 162.589844 94.628906 151.789062 100.699219 140.933594 106.96875 C 130.082031 113.234375 119.429688 119.5625 108.996094 125.929688 C 110.757812 130.082031 110.914062 134.859375 109.199219 139.242188 L 170.84375 174.855469 C 174.292969 170.3125 179.359375 167.519531 184.746094 166.820312 Z M 184.746094 166.820312 " fill-opacity="1" fill-rule="evenodd"/><path fill="#1190cf" d="M 190.082031 95.601562 L 190.082031 166.820312 C 192.734375 167.15625 195.371094 168.019531 197.832031 169.441406 C 200.292969 170.867188 202.359375 172.71875 203.984375 174.851562 L 265.628906 139.242188 C 264 135.050781 263.972656 130.277344 265.824219 125.933594 C 255.386719 119.566406 244.734375 113.238281 233.878906 106.96875 C 223.027344 100.703125 212.230469 94.632812 201.5 88.777344 C 198.664062 92.550781 194.519531 94.914062 190.082031 95.601562 Z M 190.082031 95.601562 " fill-opacity="1" fill-rule="evenodd"/><path fill="#077aba" d="M 168.179688 179.464844 L 106.539062 143.859375 C 103.597656 147.539062 99.378906 149.792969 94.90625 150.34375 C 94.613281 162.570312 94.460938 174.96875 94.460938 187.507812 C 94.460938 200.042969 94.609375 212.433594 94.90625 224.652344 C 97.195312 224.933594 99.464844 225.667969 101.582031 226.890625 C 103.542969 228.023438 105.203125 229.476562 106.539062 231.140625 L 168.179688 195.53125 C 166.089844 190.515625 165.976562 184.730469 168.179688 179.464844 Z M 168.179688 179.464844 " fill-opacity="1" fill-rule="evenodd"/><path fill="#085c9c" d="M 170.84375 200.152344 L 109.195312 235.761719 C 110.824219 239.953125 110.851562 244.726562 109.003906 249.070312 C 119.4375 255.441406 130.089844 261.765625 140.941406 268.035156 C 151.792969 274.300781 162.597656 280.371094 173.328125 286.226562 C 176.164062 282.453125 180.308594 280.085938 184.746094 279.40625 L 184.75 208.183594 C 182.089844 207.84375 179.457031 206.980469 176.992188 205.558594 C 174.53125 204.136719 172.464844 202.285156 170.84375 200.152344 Z M 170.84375 200.152344 " fill-opacity="1" fill-rule="evenodd"/><path fill="#085c9c" d="M 190.082031 208.179688 L 190.082031 279.398438 C 192.1875 279.726562 194.273438 280.433594 196.230469 281.566406 C 198.351562 282.792969 200.121094 284.390625 201.503906 286.234375 C 212.230469 280.378906 223.03125 274.308594 233.878906 268.042969 L 234.042969 267.957031 C 244.84375 261.71875 255.441406 255.417969 265.832031 249.082031 C 264.070312 244.929688 263.910156 240.144531 265.628906 235.761719 L 203.984375 200.148438 C 200.527344 204.691406 195.46875 207.480469 190.082031 208.179688 Z M 190.082031 208.179688 " fill-opacity="1" fill-rule="evenodd"/><path fill="#077aba" d="M 206.648438 195.539062 L 268.289062 231.148438 C 271.226562 227.464844 275.445312 225.210938 279.921875 224.660156 C 280.214844 212.433594 280.367188 200.039062 280.363281 187.503906 C 280.359375 174.96875 280.210938 162.574219 279.917969 150.347656 C 277.628906 150.070312 275.359375 149.335938 273.238281 148.113281 C 271.285156 146.980469 269.621094 145.527344 268.289062 143.863281 L 206.648438 179.46875 C 208.734375 184.488281 208.851562 190.273438 206.648438 195.539062 Z M 206.648438 195.539062 " fill-opacity="1" fill-rule="evenodd"/><path fill="#8ad7f8" d="M 201.628906 67.707031 C 221.648438 57.378906 241.3125 47.832031 260.4375 39.105469 C 259.355469 36.140625 259.207031 32.949219 260.144531 29.988281 C 240.148438 18.929688 220.140625 8.925781 200.316406 0.00390625 C 197.894531 2.949219 194.261719 5.039062 190.078125 5.667969 L 190.082031 60.707031 C 192.1875 61.035156 194.273438 61.742188 196.230469 62.875 C 198.414062 64.136719 200.226562 65.792969 201.628906 67.707031 Z M 201.628906 67.707031 " fill-opacity="1" fill-rule="evenodd"/><path fill="#8ad7f8" d="M 184.746094 60.714844 L 184.746094 5.671875 C 180.5625 5.042969 176.925781 2.949219 174.507812 0 C 154.679688 8.921875 134.671875 18.921875 114.679688 29.984375 C 115.617188 32.941406 115.472656 36.136719 114.390625 39.097656 C 133.515625 47.824219 153.183594 57.378906 173.203125 67.703125 C 176.039062 63.832031 180.242188 61.40625 184.746094 60.714844 Z M 184.746094 60.714844 " fill-opacity="1" fill-rule="evenodd"/><path fill="#34abe2" d="M 170.726562 72.441406 C 150.636719 62.078125 130.914062 52.5 111.742188 43.761719 C 110.441406 45.375 108.800781 46.796875 106.863281 47.914062 C 104.929688 49.035156 102.875 49.742188 100.828125 50.0625 C 98.804688 71.046875 97.230469 92.921875 96.152344 115.507812 C 98.015625 115.875 99.851562 116.546875 101.582031 117.546875 C 103.382812 118.585938 104.929688 119.894531 106.199219 121.390625 C 116.675781 114.992188 127.375 108.640625 138.273438 102.34375 C 149.171875 96.046875 160.023438 89.957031 170.800781 84.070312 C 169.488281 80.382812 169.40625 76.285156 170.726562 72.441406 Z M 170.726562 72.441406 " fill-opacity="1" fill-rule="evenodd"/><path fill="#34abe2" d="M 90.835938 115.289062 C 91.90625 92.78125 93.472656 70.964844 95.480469 50.027344 C 92.367188 49.484375 89.527344 48.007812 87.429688 45.707031 C 67.875 57.480469 49.214844 69.816406 31.566406 82.550781 C 32.914062 86.125 32.910156 90.332031 31.359375 94.28125 L 79 121.796875 C 81.988281 118.0625 86.289062 115.796875 90.835938 115.289062 Z M 90.835938 115.289062 " fill-opacity="1" fill-rule="evenodd"/><g clip-path="url(#738311e2f0)"><path fill="#1190cf" d="M 76.335938 126.414062 L 28.699219 98.890625 C 26.058594 102.207031 22.429688 104.3125 18.664062 104.933594 C 16.472656 126.578125 15.125 148.910156 14.699219 171.765625 C 17.734375 172.429688 20.433594 174.15625 22.460938 176.578125 C 39.570312 164.367188 57.671875 152.105469 76.621094 139.921875 C 74.785156 135.726562 74.59375 130.867188 76.335938 126.414062 Z M 76.335938 126.414062 " fill-opacity="1" fill-rule="evenodd"/></g><path fill="#077aba" d="M 79.46875 144.425781 C 60.460938 156.652344 42.3125 168.953125 25.164062 181.199219 C 25.90625 183.132812 26.316406 185.265625 26.316406 187.5 C 26.320312 189.738281 25.90625 191.867188 25.164062 193.804688 C 42.3125 206.042969 60.464844 218.351562 79.476562 230.574219 C 82.144531 227.503906 85.738281 225.527344 89.585938 224.820312 C 89.292969 212.539062 89.140625 200.089844 89.136719 187.5 C 89.140625 174.910156 89.292969 162.464844 89.585938 150.1875 C 87.652344 149.832031 85.75 149.148438 83.949219 148.109375 C 82.214844 147.109375 80.71875 145.859375 79.46875 144.425781 Z M 79.46875 144.425781 " fill-opacity="1" fill-rule="evenodd"/><g clip-path="url(#4e525ee156)"><path fill="#085c9c" d="M 76.613281 235.085938 C 57.667969 222.902344 39.566406 210.640625 22.453125 198.425781 C 20.425781 200.847656 17.734375 202.574219 14.699219 203.238281 C 15.125 226.09375 16.472656 248.425781 18.664062 270.070312 C 22.425781 270.691406 26.058594 272.796875 28.699219 276.109375 L 76.335938 248.585938 C 74.683594 244.335938 74.679688 239.484375 76.613281 235.085938 Z M 76.613281 235.085938 " fill-opacity="1" fill-rule="evenodd"/></g><path fill="#2e365e" d="M 79 253.210938 L 31.359375 280.726562 C 32.90625 284.667969 32.914062 288.859375 31.574219 292.429688 C 49.214844 305.152344 67.871094 317.484375 87.445312 329.28125 C 89.535156 326.988281 92.375 325.519531 95.480469 324.976562 C 93.472656 304.042969 91.90625 282.226562 90.839844 259.714844 C 88.480469 259.460938 86.136719 258.71875 83.949219 257.457031 C 81.992188 256.324219 80.332031 254.875 79 253.210938 Z M 79 253.210938 " fill-opacity="1" fill-rule="evenodd"/><path fill="#2e365e" d="M 96.152344 259.492188 C 97.230469 282.078125 98.804688 303.957031 100.824219 324.941406 C 102.878906 325.257812 104.929688 325.96875 106.867188 327.085938 C 108.804688 328.207031 110.441406 329.628906 111.742188 331.246094 C 130.917969 322.503906 150.644531 312.929688 170.734375 302.570312 C 169.464844 298.871094 169.425781 294.769531 170.796875 290.9375 C 160.015625 285.054688 149.167969 278.957031 138.269531 272.664062 C 127.375 266.371094 116.671875 260.019531 106.191406 253.617188 C 103.558594 256.722656 99.988281 258.738281 96.152344 259.492188 Z M 96.152344 259.492188 " fill-opacity="1" fill-rule="evenodd"/><path fill="#0c0a28" d="M 173.195312 307.296875 C 153.175781 317.625 133.511719 327.175781 114.386719 335.898438 C 115.46875 338.863281 115.621094 342.058594 114.683594 345.015625 C 134.675781 356.074219 154.683594 366.074219 174.511719 375 C 176.925781 372.050781 180.5625 369.964844 184.746094 369.328125 L 184.746094 314.296875 C 182.636719 313.976562 180.554688 313.261719 178.59375 312.128906 C 176.410156 310.867188 174.601562 309.210938 173.195312 307.296875 Z M 173.195312 307.296875 " fill-opacity="1" fill-rule="evenodd"/><path fill="#0c0a28" d="M 190.082031 314.292969 L 190.082031 369.332031 C 194.261719 369.964844 197.898438 372.054688 200.316406 375.003906 C 220.144531 366.082031 240.152344 356.078125 260.148438 345.023438 C 259.210938 342.058594 259.355469 338.867188 260.433594 335.902344 C 241.308594 327.179688 221.644531 317.625 201.621094 307.296875 C 198.78125 311.171875 194.582031 313.59375 190.082031 314.292969 Z M 190.082031 314.292969 " fill-opacity="1" fill-rule="evenodd"/><path fill="#2e365e" d="M 204.097656 302.5625 C 224.1875 312.925781 243.914062 322.503906 263.085938 331.242188 C 264.386719 329.628906 266.023438 328.207031 267.960938 327.085938 C 269.898438 325.972656 271.949219 325.261719 273.996094 324.941406 C 276.019531 303.957031 277.59375 282.082031 278.671875 259.492188 C 276.8125 259.128906 274.972656 258.457031 273.238281 257.457031 C 271.441406 256.417969 269.894531 255.109375 268.621094 253.613281 C 258.148438 260.007812 247.449219 266.359375 236.542969 272.667969 L 236.402344 272.746094 C 225.554688 279.011719 214.753906 285.074219 204.027344 290.933594 C 205.335938 294.617188 205.421875 298.71875 204.097656 302.5625 Z M 204.097656 302.5625 " fill-opacity="1" fill-rule="evenodd"/><path fill="#2e365e" d="M 283.992188 259.714844 C 282.917969 282.226562 281.351562 304.039062 279.34375 324.976562 C 282.457031 325.515625 285.296875 326.992188 287.390625 329.289062 C 306.957031 317.492188 325.617188 305.160156 343.257812 292.4375 C 341.90625 288.863281 341.914062 284.667969 343.464844 280.722656 L 295.828125 253.203125 C 292.84375 256.941406 288.539062 259.207031 283.992188 259.714844 Z M 283.992188 259.714844 " fill-opacity="1" fill-rule="evenodd"/><g clip-path="url(#3a2ce53a07)"><path fill="#085c9c" d="M 298.488281 248.589844 L 346.125 276.109375 C 348.765625 272.796875 352.394531 270.691406 356.164062 270.066406 C 358.351562 248.429688 359.699219 226.09375 360.125 203.234375 C 357.089844 202.570312 354.398438 200.847656 352.367188 198.425781 C 335.253906 210.632812 317.152344 222.898438 298.207031 235.082031 C 300.042969 239.273438 300.230469 244.136719 298.488281 248.589844 Z M 298.488281 248.589844 " fill-opacity="1" fill-rule="evenodd"/></g><path fill="#077aba" d="M 295.355469 230.582031 C 314.363281 218.351562 332.515625 206.050781 349.660156 193.804688 C 348.917969 191.871094 348.507812 189.742188 348.507812 187.5 C 348.507812 185.265625 348.917969 183.136719 349.660156 181.203125 C 332.511719 168.960938 314.359375 156.65625 295.347656 144.429688 C 292.679688 147.496094 289.089844 149.472656 285.246094 150.183594 C 285.539062 162.460938 285.695312 174.910156 285.6875 187.507812 C 285.6875 200.089844 285.535156 212.542969 285.238281 224.816406 C 287.171875 225.171875 289.078125 225.855469 290.875 226.894531 C 292.609375 227.898438 294.109375 229.148438 295.355469 230.582031 Z M 295.355469 230.582031 " fill-opacity="1" fill-rule="evenodd"/><g clip-path="url(#c9f12e93e0)"><path fill="#1190cf" d="M 298.207031 139.914062 C 317.15625 152.101562 335.257812 164.363281 352.375 176.574219 C 354.398438 174.15625 357.089844 172.433594 360.121094 171.769531 C 359.695312 148.910156 358.347656 126.578125 356.15625 104.933594 C 352.398438 104.3125 348.765625 102.207031 346.128906 98.894531 L 298.488281 126.417969 C 300.140625 130.664062 300.140625 135.523438 298.207031 139.914062 Z M 298.207031 139.914062 " fill-opacity="1" fill-rule="evenodd"/></g><g clip-path="url(#408447f829)"><path fill="#34abe2" d="M 324.730469 56.523438 L 360.121094 36.078125 C 358.976562 33.148438 358.96875 30.035156 359.964844 27.382812 C 346.859375 17.933594 332.996094 8.769531 318.457031 0.00390625 C 316.902344 1.707031 314.792969 2.796875 312.484375 3.203125 C 313.980469 18.757812 315.144531 34.960938 315.941406 51.6875 C 317.691406 51.878906 319.429688 52.429688 321.054688 53.367188 C 322.507812 54.207031 323.738281 55.289062 324.730469 56.523438 Z M 324.730469 56.523438 " fill-opacity="1" fill-rule="evenodd"/></g><path fill="#34abe2" d="M 243.257812 67.65625 C 261.015625 58.496094 278.445312 50.035156 295.386719 42.316406 C 296.535156 43.738281 297.984375 44.996094 299.695312 45.980469 C 301.40625 46.972656 303.21875 47.597656 305.027344 47.878906 C 306.816406 66.421875 308.210938 85.753906 309.160156 105.714844 C 307.511719 106.035156 305.890625 106.632812 304.359375 107.515625 C 302.773438 108.429688 301.40625 109.589844 300.285156 110.910156 C 291.023438 105.257812 281.570312 99.644531 271.9375 94.078125 C 262.3125 88.515625 252.71875 83.132812 243.195312 77.933594 C 244.355469 74.675781 244.429688 71.050781 243.261719 67.65625 Z M 243.257812 67.65625 " fill-opacity="1" fill-rule="evenodd"/><g fill="#085c9c" fill-opacity="1"><g transform="translate(146.293165, 249.374984)"><g><path d="M 1.5 0 L 1.5 -8.625 L 2.71875 -8.625 L 2.71875 -7.265625 L 2.875 -7.234375 C 3.28125 -8.210938 4.035156 -8.703125 5.140625 -8.703125 C 5.734375 -8.703125 6.175781 -8.59375 6.46875 -8.375 L 6.140625 -7.296875 L 5.984375 -7.265625 C 5.660156 -7.429688 5.304688 -7.515625 4.921875 -7.515625 C 4.234375 -7.515625 3.703125 -7.253906 3.328125 -6.734375 C 2.960938 -6.222656 2.78125 -5.390625 2.78125 -4.234375 L 2.78125 0 Z M 1.5 0 "/></g></g></g></svg>